<svg xmlns="http://www.w3.org/2000/svg" width="1024" height="500" viewBox="0 0 1024 500">
  <defs>
    <linearGradient id="background" x1="0" y1="0" x2="1" y2="1">
      <stop offset="0" stop-color="#0F172A"/>
      <stop offset="0.52" stop-color="#163A89"/>
      <stop offset="1" stop-color="#2557D6"/>
    </linearGradient>
    <radialGradient id="glow" cx="50%" cy="50%" r="50%">
      <stop offset="0" stop-color="#7CB2FF" stop-opacity="0.32"/>
      <stop offset="1" stop-color="#7CB2FF" stop-opacity="0"/>
    </radialGradient>
    <linearGradient id="icon-background" x1="46" y1="46" x2="466" y2="466" gradientUnits="userSpaceOnUse">
      <stop offset="0" stop-color="#4F8FF7"/>
      <stop offset="1" stop-color="#2557D6"/>
    </linearGradient>
    <filter id="soft-shadow" x="-30%" y="-30%" width="160%" height="160%">
      <feDropShadow dx="0" dy="18" stdDeviation="22" flood-color="#020617" flood-opacity="0.35"/>
    </filter>
  </defs>

  <rect width="1024" height="500" fill="url(#background)"/>
  <circle cx="820" cy="242" r="330" fill="url(#glow)"/>

  <g fill="none" stroke="#FFFFFF" stroke-linecap="round" opacity="0.12">
    <path d="M557 118h154" stroke-width="8"/>
    <path d="M588 150h123" stroke-width="8"/>
    <path d="M557 350h154" stroke-width="8"/>
    <path d="M588 382h123" stroke-width="8"/>
  </g>

  <g fill="#FFFFFF" font-family="Avenir Next, Avenir, Helvetica Neue, sans-serif">
    <text x="72" y="214" font-size="76" font-weight="700" letter-spacing="-2">Dukto</text>
    <text x="76" y="270" font-size="28" font-weight="500" opacity="0.92">Direct file transfer. No cloud.</text>
    <text x="76" y="320" font-size="18" font-weight="500" letter-spacing="2.2" opacity="0.64">FAST  ·  PRIVATE  ·  CROSS-PLATFORM</text>
  </g>

  <g transform="translate(648 54) scale(0.765625)" filter="url(#soft-shadow)">
    <rect x="46" y="46" width="420" height="420" rx="96" fill="url(#icon-background)"/>
    <g transform="translate(118 118) scale(11.5)" fill="#FFFFFF" fill-rule="evenodd" clip-rule="evenodd">
      <path d="M10.826 19.91a6 6 0 0 1-1.37 2.08c-.11.12 0 .3 0-1.66a20.5 20.5 0 0 0-.19-4.427a11.4 11.4 0 0 1-.27-2.05a.31.31 0 1 0-.599-.12a11 11 0 0 0-.09 2.26a28 28 0 0 0 .18 4.388c0 .24.17 1.32.17 1.789a6.1 6.1 0 0 1-1.56-1.18c-.59-.66-.69-1.16-.999-1a.31.31 0 0 0-.13.41a6.85 6.85 0 0 0 1.79 2.54c.53.43 1.509.86 2.148.33a2.3 2.3 0 0 0 .5-.64a7.6 7.6 0 0 0 1.09-2.28q.057-.21.06-.43a.365.365 0 1 0-.73-.01m6.338-4.297a9.5 9.5 0 0 0-.84-1.54c-.33-.55-.66-.94-1.3-.89c-1.639.19-2.469 1.78-3.148 3.12a.31.31 0 0 0 .55.28l.63-.85a6.9 6.9 0 0 1 1.529-1.23c.1.28-.2 2.09-.29 3.609c0 .79-.05 4.048 0 4.128c0 .45 0 1.07.43 1a.33.33 0 0 0 .25-.39c-.07-.81.34-1.52.49-3.809c.07-1.23 0-3.998-.08-4.448a6.3 6.3 0 0 1 1.439 2.19a.345.345 0 1 0 .69 0a5 5 0 0 0-.35-1.17"/>
      <path d="M21.252 7.706a4.84 4.84 0 0 0 1-2.999c-.34-3.998-7.507-6.337-9.996-1.54a2.3 2.3 0 0 0-.51-.47a4.418 4.418 0 0 0-6.997 4.2C1.429 6.446-1.25 9.734.61 13.373c.57 1.1 2.79 1.949 3.459 1.609a.304.304 0 0 0 .135-.405a.303.303 0 0 0-.405-.135a3.47 3.47 0 0 1-2.569-1.38a4.8 4.8 0 0 1-.46-2.068A3.28 3.28 0 0 1 4.6 7.815c.29.063.567.175.82.33a.49.49 0 0 0 .5-.829c-.25-.24-.19-.81-.18-1.18a3.349 3.349 0 0 1 5.347-2.489c.74.51.52 1.46 1.25 1.44c.47 0 .51-.32.92-1.33c1.818-3.798 7.636-1.899 7.996 1a4.32 4.32 0 0 1-.92 2.649s-.55.33-.49.48a.49.49 0 0 0-.22.41c0 .12.37.68.82.34c2.76-.64 3.659 3.508 1.83 5.067a6.44 6.44 0 0 1-2.83 1.3a.35.35 0 0 0 .14.68a7 7 0 0 0 3.17-1.4c2.138-1.73 1.459-6.207-1.5-6.577"/>
    </g>
  </g>
</svg>
